<?xml version="1.0" encoding="utf-8"?>
<!-- Generator: Adobe Illustrator 16.0.0, SVG Export Plug-In . SVG Version: 6.00 Build 0)  -->
<!DOCTYPE svg PUBLIC "-//W3C//DTD SVG 1.1//EN" "http://www.w3.org/Graphics/SVG/1.1/DTD/svg11.dtd">
<svg version="1.1" id="Layer_1" xmlns="http://www.w3.org/2000/svg" xmlns:xlink="http://www.w3.org/1999/xlink" x="0px" y="0px"
	 width="20.134px" height="20.037px" viewBox="0 0 20.134 20.037" enable-background="new 0 0 20.134 20.037" xml:space="preserve">
<path fill="#172A53" d="M0,7.701c-0.004,4.256,3.445,7.707,7.698,7.711c4.256,0.002,7.709-3.444,7.709-7.701
	C15.412,3.455,11.968,0.001,7.711,0C3.456-0.005,0.004,3.445,0,7.701 M12.746,7.709c-0.004,2.783-2.264,5.037-5.047,5.036
	c-2.779-0.004-5.033-2.261-5.033-5.044c0.003-2.781,2.26-5.037,5.043-5.034C10.492,2.668,12.746,4.927,12.746,7.709"/>
<rect x="14.774" y="11.339" transform="matrix(0.7073 -0.7069 0.7069 0.7073 -6.5641 15.9825)" fill="#172A53" width="2.488" height="9.159"/>
</svg>
