<?xml version="1.0" encoding="utf-8"?>
<!-- Generator: Adobe Illustrator 16.0.0, SVG Export Plug-In . SVG Version: 6.00 Build 0)  -->
<!DOCTYPE svg PUBLIC "-//W3C//DTD SVG 1.1//EN" "http://www.w3.org/Graphics/SVG/1.1/DTD/svg11.dtd">
<svg version="1.1" id="Layer_1" xmlns="http://www.w3.org/2000/svg" xmlns:xlink="http://www.w3.org/1999/xlink" x="0px" y="0px"
	 width="251.25px" height="34.25px" viewBox="0 0 251.25 34.25" enable-background="new 0 0 251.25 34.25" xml:space="preserve">
<g id="Layer_2">
</g>
<path fill="#FFFFFF" d="M184.443,10.906L184.443,10.906c0.16,1.079,1.746,8.827,1.746,8.827h-3.482L184.443,10.906z M171.229,28.918
	h9.213l0.696-3.182h6.575l0.877,3.182h9.213L189.174,3.6h-9.658L171.229,28.918z"/>
<path fill="#FFFFFF" d="M148.611,3.599h8.924c8.105,0,14.293,3.718,14.293,13.022c0,7.498-5.047,12.294-12.131,12.294l-11.086-0.014
	V3.599z M157.378,21.646h0.597c2.924,0,5.09-1.754,5.09-5.056c0-3.558-1.922-5.543-5.133-5.543h-0.554V21.646z"/>
<path fill="#FFFFFF" d="M143.306,4.392l0.472,4.156c0.112,0.986,0.674,3.352-0.019,3.033c-0.437-0.194-0.796-1.267-1.153-2.219
	c-0.181-0.482-1.044-2.77-1.27-2.938c-1.09-0.818-3.811-1.737-5.653-1.745c-5.584-0.021-9.276,4.098-9.276,11.402
	c0,5.241,2.51,11.53,8.897,11.53c2.286,0,6.667-0.725,7.858-3.977c0.539-1.471,1.033-2.781,1.39-2.383
	c0.264,0.289-0.08,1.469-0.238,2.104c-0.752,3.016-0.795,3.93-1.03,4.049c-2.887,1.445-6.586,1.924-9.826,1.924
	c-10.292,0-13.847-6.006-13.847-12.007c0-10.419,6.399-14.731,16.322-14.356C138.443,3.057,140.953,3.506,143.306,4.392"/>
<path fill="#FFFFFF" d="M112.906,4.855l-1.647-0.575c-0.557-0.499,0.118-0.638,0.118-0.638s2.383,0.441,8.318-0.06
	c0,0,0.518,0.101,0.161,0.521l-1.947,0.834c-1.269,0.553-1.269,0.233-1.269,1.625l-0.011,12.901c0,10.092-10.268,9.863-12.267,9.863
	c-0.952,0-10.295,0-10.295-8.102V7.571c0-2.384,0.252-2.318-0.537-2.597l-2.383-0.896c0,0-0.403-0.568,0.315-0.535
	c1.946,0.1,4.767,0.519,11.319,0.04c0,0,0.575,0.141,0.198,0.558l-1.907,0.555c-1.509,0.677-1.309,0.16-1.349,1.708l0.046,13.464
	c0,3.303,1.699,7.393,6.973,7.393c7.277,0,7.345-6.293,7.345-7.693l0.012-13.336C114.177,4.974,114.019,5.331,112.906,4.855"/>
<path fill="#FFFFFF" d="M230.123,26.975l2.539-6.719l0.445,0.379c1.559,1.277,3.677,2.357,5.672,2.4
	c1.787,0.041,2.66-0.436,2.424-1.945c-0.18-1.131-1.453-1.326-2.247-1.484l-1.748-0.348c-3.401-0.635-6.258-2.731-6.258-6.701
	c0-6.005,5.177-9.369,10.386-9.369c2.738,0,5.244,0.693,7.594,2.223l-2.207,5.954c-1.211-0.87-3.043-2.099-5.359-2.184
	c-0.764-0.029-2.508,0.373-1.95,2.145c0.241,0.753,1.323,1.07,1.987,1.231l1.97,0.476c3.687,0.857,6.351,2.953,6.351,7.237
	c0,6.039-5.207,9.027-10.383,9.027C236.318,29.297,232.822,28.438,230.123,26.975"/>
<rect x="219.536" y="3.599" fill="#FFFFFF" width="8.714" height="25.319"/>
<polygon fill="#FFFFFF" points="209.544,3.599 218.624,3.599 209.35,28.916 201.982,28.916 192.734,3.599 201.787,3.599 
	205.665,18.875 "/>
<path fill="#DEB209" d="M56.858,3.742c0.791,1.834,1.505,3.392,2.146,6.104c1.222,8.361,2.17,13.841,2.841,16.435
	c0.194,0,0.351,0.566,0.469,1.699v0.18c0,1.012-0.653,1.521-1.968,1.521h-0.178c-1.894,0-2.033-0.354-2.033-1.051
	c-0.895-1.834-0.902-4.086-1.454-6.756l-2.415-11.806L53.1,8.279c-3.507,2.947-5.993,6.231-8.947,14.979
	c-0.651,1.932,0.089,4.041-0.489,5.914c-0.711-0.27-1.461-0.209-2.192-0.209c-0.55,0-0.828-0.273-0.828-0.826l-1.049-1.879
	c0.82-2.982,1.229-12.605,1.229-20.087c0.619-0.378,1.339-0.743,1.861-1.254c0.629-0.619,1.003-0.583,1.892-0.4
	c0.326,0.068,1.918,0.309,1.884,0.826L46.191,9.49l0.089,0.09h0.088c1.239-1.177,2.354-2.436,3.471-3.721
	c-0.063,0.11-0.116,0.234-0.18,0.348c0.818-1.42,2.522-3.427,4.314-3.427C55.896,3.255,56.858,3.576,56.858,3.742"/>
<path fill="#DEB209" d="M82.906,11.915c-0.236,1.334-0.525,2.339-0.867,3.013c-1.435,2.812-5.86,4.415-11.695,4.5l-0.935,0.035
	c0.351,2.477,1.788,4.465,3.651,5.24c2.587,1.076,5.903-0.207,10.384-3.027c0.668-0.422,1.539-0.811,2.31-0.98
	c1.45-0.322,0.966,0.482,0.932,1.49c-0.013,0.451,0.258,0.66,0.37,1.021c0.096,0.316,0.177,0.021,0.117,0.447
	c-0.102,0.719-1.261,1.426-1.771,1.812c-0.442,0.338-0.744,1.014-1.198,1.273c-0.256,0.146-0.48,0.02-0.78,0.07
	c-0.626,0.111-1.192,0.779-1.722,1.115c-0.696,0.441-1.422,0.832-2.196,1.123c-1.639,0.615-3.384,0.729-5.118,0.627
	c-1.084-0.193-1.934-0.416-2.552-0.678l-0.848-0.346c-4.473-1.854-6.329-6.654-7.706-10.922c-0.505-1.562-0.611-2.874-0.071-4.434
	c0.607-1.76,1.215-3.521,1.821-5.283l0.259-0.618c1.136-2.738,3.345-4.2,5.751-4.206c2.774-0.36,4.995-0.264,6.666,0.292
	C81.039,4.586,82.77,7.397,82.906,11.915 M68.53,15.915c1.098,0.301,3.655,0.097,6.787-0.614c0.965-0.843,1.617-1.545,1.96-2.115
	c1.383-2.294,1.024-4.246-1.08-5.855l-1.066-0.423c-2.503-0.993-4.611,1.693-5.74,3.564C68.031,12.725,67.449,14.54,68.53,15.915"/>
<path fill="#DEB209" d="M36.16,7.543c-1.082-1.592-2.71-2.688-4.042-4.049c-0.047,0.03-0.003,0.094-0.071,0.132
	c-0.608-0.439-1.25-0.806-1.902-1.146c-0.436-0.229-1.631-0.521-1.831-0.883c-4.85-0.672-9.366-0.628-13.902,1.475
	c-5.505,2.556-11.53,7.62-12.366,13.995c-0.207,1.584-0.039,3.178,0.387,4.713c0.214,0.781,0.491,1.541,0.799,2.291
	c0.42,1.039,1.076,2.584,1.801,3.365c5.087,5.477,12.855,6.504,19.749,4.244c2.186-0.717,4.079-1.959,6.226-2.727
	c3.066-2.5,6.064-5.523,6.884-9.541c0.205-1.011,0.328-2.141,0.351-3.311C38.298,13.083,37.69,9.794,36.16,7.543 M34.231,14.923
	c-0.02,0.507,0.017,0.833-0.086,1.21c0.034,0.155,0.007,0.158,0.046,0.347c-0.099,0.144-0.08,0.382-0.089,0.433v0.042
	c0.083,0.082-0.006,0.157-0.002,0.286c-0.024,0.134-0.051,0.266-0.081,0.4c-0.037,0.096-0.075,0.188-0.09,0.309
	c-0.014,0.156-0.087,0.258-0.131,0.391v0.166c-0.003,0.018-0.01,0.031-0.015,0.047h-0.028c0.008,0.035,0.002,0.059,0,0.084
	c-0.012,0.035-0.024,0.07-0.035,0.105c-0.035,0.051-0.08,0.09-0.094,0.158v0.045c-0.134,0.182-0.147,0.488-0.259,0.689
	c-0.032,0.041-0.046,0.1-0.046,0.174c-0.014,0.037-0.027,0.074-0.043,0.111c-0.109,0.154-0.206,0.324-0.258,0.545
	c-0.022,0.043-0.041,0.086-0.063,0.133c-0.165,0.227-0.298,0.49-0.457,0.723c-0.07,0.178-0.199,0.293-0.258,0.477
	c-0.289,0.359-0.538,0.76-0.823,1.125c-0.02,0.051-0.046,0.1-0.086,0.131c-0.168,0.227-0.367,0.416-0.539,0.641
	c-0.06,0.064-0.114,0.129-0.173,0.193c-0.081,0.041-0.155,0.09-0.184,0.182c-0.052,0.057-0.109,0.107-0.163,0.162
	c-0.188,0.172-0.377,0.35-0.56,0.527c-3.894,3.436-9.193,4.121-14.254,3.57c-0.008-0.033-0.037-0.051-0.086-0.043
	c-2.674-0.303-5.15-1.355-7.308-2.941v-0.041c-0.177-0.094-0.286-0.252-0.382-0.422c-0.019-0.033-0.041-0.061-0.062-0.104
	c-0.106-0.207-0.195-0.43-0.334-0.6C7.13,23.887,6.987,23.582,6.94,23.18c-0.103-0.432-0.105-0.762-0.258-1.08
	c-0.109-0.006-0.013-0.145,0-0.172c0.045-0.227,0.02-0.361-0.046-0.607v-0.041c0.011-0.193,0.107-0.479,0-0.648v-0.086
	c0.084-0.133-0.012-0.531,0.131-0.477c-0.078-0.373,0.042-0.734,0.083-1.121c0.128-0.591,0.28-1.126,0.428-1.544
	c0.566-1.608,1.48-3.067,2.54-4.397c0.092-0.115,0.281-0.366,0.526-0.68c0.827-0.905,1.726-1.738,2.564-2.635h0.044
	c0.13-0.084,0.268-0.162,0.346-0.303c0.003-0.026,0.006-0.05,0.044-0.042c0.407-0.387,0.902-0.684,1.255-1.125
	c0.143-0.016,0.187-0.131,0.259-0.215c0.776-0.564,1.57-1.109,2.292-1.731c0.162-0.009,0.21-0.137,0.346-0.176
	c0.74-0.494,1.647-0.826,2.421-1.295c0.159-0.044,0.295-0.107,0.433-0.175c0.334-0.139,0.71-0.241,0.994-0.43
	c0.204-0.039,0.362-0.122,0.526-0.202c0.11-0.023,0.22-0.053,0.333-0.072c0.014,0.004,0.028,0.006,0.049,0.015V3.917
	c0.626-0.111,1.257-0.165,1.887-0.163c1.018,0.002,2.05,0.165,3.02,0.485c0.223,0.074,0.446,0.155,0.664,0.247
	c1.107,0.462,1.941,1.479,2.992,1.919c0.31,0.436,0.725,0.78,1.074,1.184c0.017,0.021,0.032,0.038,0.047,0.059
	c0.095,0.111,0.184,0.229,0.265,0.356c-0.487-0.738-1.72-1.284-3.132-1.673c-0.008-0.004-0.019-0.006-0.025-0.011
	c-0.366-0.084-0.661-0.236-0.997-0.347c-0.169-0.062-0.325-0.136-0.518-0.175c-0.306-0.095-0.663-0.074-0.864-0.173
	c-0.507-0.099-0.953-0.049-1.47-0.171h-0.044c-0.218-0.073-0.737-0.073-0.953,0h-0.042c-0.161,0.028-0.431-0.058-0.521,0.041h-0.042
	c-0.423,0.095-0.988,0.051-1.341,0.218c-0.123,0.048-0.338,0.009-0.431,0.085h-0.088c-0.251,0.038-0.457,0.119-0.691,0.175
	c-0.156,0-0.256,0.061-0.358,0.115c-1.148,0.608-4.597,0.685-4.658,2.562c0.012-0.002,0.021-0.002,0.032-0.004
	c-0.062,0.158-0.107,0.323-0.099,0.504c0.934,0.215,2.528-0.812,3.43-1.081c1.381-0.417,2.863-0.901,4.285-0.974
	c2.732-0.138,5.301,0.245,7.476,1.704c0.668,0.446,1.183,1.064,1.728,1.644c0.778,1.197,1.237,2.577,1.363,4.04
	C34.237,14.608,34.233,14.738,34.231,14.923"/>
</svg>
