<?xml version="1.0" encoding="utf-8"?>
<!-- Generator: Adobe Illustrator 16.0.0, SVG Export Plug-In . SVG Version: 6.00 Build 0)  -->
<!DOCTYPE svg PUBLIC "-//W3C//DTD SVG 1.1//EN" "http://www.w3.org/Graphics/SVG/1.1/DTD/svg11.dtd">
<svg version="1.1" id="Layer_1" xmlns="http://www.w3.org/2000/svg" xmlns:xlink="http://www.w3.org/1999/xlink" x="0px" y="0px"
	 width="100px" height="100px" viewBox="0 0 100 100" enable-background="new 0 0 100 100" xml:space="preserve">
<path fill="#FFFFFF" d="M50.197,0.67C22.953,0.67,0.867,22.756,0.867,50c0,27.243,22.086,49.33,49.331,49.33
	c27.243,0,49.33-22.087,49.33-49.33C99.527,22.756,77.44,0.67,50.197,0.67z M50.197,92.526C26.71,92.526,7.67,73.485,7.67,50
	c0-23.486,19.04-42.526,42.527-42.526c23.485,0,42.526,19.04,42.526,42.526C92.724,73.485,73.683,92.526,50.197,92.526z"/>
<polygon fill="#FFFFFF" points="47.619,73.602 70.318,49.356 46.544,26.398 42.376,30.715 58.844,46.618 29.682,46.618 
	29.682,52.618 59.056,52.618 43.232,69.508 "/>
</svg>
