<?xml version="1.0" encoding="utf-8"?>
<!-- Generator: Adobe Illustrator 22.1.0, SVG Export Plug-In . SVG Version: 6.00 Build 0)  -->
<svg width="215.125px" height="43px" version="1.1" id="Layer_1" xmlns="http://www.w3.org/2000/svg" xmlns:xlink="http://www.w3.org/1999/xlink" x="0px" y="0px"
	 viewBox="0 0 215 43" style="enable-background:new 0 0 215 43;" xml:space="preserve">
<style type="text/css">
	.st0{fill:#29AAE1;}
	.st1{fill:#FFFFFF;}
	.st2{fill:#2075BC;}
	.st3{fill:url(#SVGID_1_);}
	.st4{clip-path:url(#SVGID_3_);fill:#FFFFFF;}
	.st5{fill:#BA2032;}
	.st6{fill:#187FB8;}
</style>
<g>
	<g>
		<g>
			<path class="st0" d="M86,21.5C86,33.3,76.4,43,64.5,43C52.6,43,43,33.3,43,21.5S52.6,0,64.5,0S86,9.6,86,21.5"/>
			<path class="st1" d="M61,29c7.1,0,11-5.9,11-11c0-0.2,0-0.3,0-0.5c0.8-0.5,1.4-1.2,1.9-2c-0.7,0.3-1.4,0.5-2.2,0.6
				c0.8-0.5,1.4-1.2,1.7-2.1c-0.7,0.4-1.6,0.8-2.5,0.9c-0.7-0.8-1.7-1.2-2.8-1.2c-2.1,0-3.9,1.7-3.9,3.9c0,0.3,0,0.6,0.1,0.9
				c-3.2-0.2-6.1-1.7-8-4c-0.3,0.6-0.5,1.2-0.5,1.9c0,1.3,0.7,2.5,1.7,3.2c-0.6,0-1.2-0.2-1.8-0.5c0,0,0,0,0,0
				c0,1.9,1.3,3.4,3.1,3.8c-0.3,0.1-0.7,0.1-1,0.1c-0.2,0-0.5,0-0.7-0.1c0.5,1.5,1.9,2.7,3.6,2.7c-1.3,1-3,1.7-4.8,1.7
				c-0.3,0-0.6,0-0.9-0.1C56.8,28.4,58.8,29,61,29"/>
		</g>
		<g>
			<path class="st2" d="M43,21.5C43,33.3,33.4,43,21.5,43C9.6,43,0,33.3,0,21.5C0,9.6,9.6,0,21.5,0C33.4,0,43,9.6,43,21.5"/>
			<path class="st1" d="M18.5,31.9v-9.6h-3.1v-4.1h3.1v-3.1c0,0,0.2-4.5,4.1-4.5h3.9v3.9h-2.6c0,0-1.4,0.4-1.4,1.2v2.4h4.1v4.1h-4.3
				v9.6L18.5,31.9L18.5,31.9z"/>
		</g>
		<g>
			
				<radialGradient id="SVGID_1_" cx="99.1143" cy="-3.9629" r="49.7649" gradientTransform="matrix(1 0 0 -1 0 44)" gradientUnits="userSpaceOnUse">
				<stop  offset="0" style="stop-color:#FFD676"/>
				<stop  offset="0.2463" style="stop-color:#F2A454"/>
				<stop  offset="0.3793" style="stop-color:#F05C3C"/>
				<stop  offset="0.6995" style="stop-color:#C22F86"/>
				<stop  offset="0.9568" style="stop-color:#6666AD"/>
				<stop  offset="0.9852" style="stop-color:#5C6CB2"/>
				<stop  offset="1" style="stop-color:#5C6CB2"/>
			</radialGradient>
			<path class="st3" d="M128.9,21.5c0,11.9-9.6,21.5-21.5,21.5c-11.9,0-21.5-9.6-21.5-21.5S95.5,0,107.4,0
				C119.2,0,128.9,9.6,128.9,21.5"/>
			<g>
				<g>
					<g>
						<defs>
							<rect id="SVGID_2_" x="97.6" y="11.6" width="19.6" height="19.6"/>
						</defs>
						<clipPath id="SVGID_3_">
							<use xlink:href="#SVGID_2_"  style="overflow:visible;"/>
						</clipPath>
						<path class="st4" d="M107.4,13.4c2.6,0,2.9,0,4,0.1c1,0,1.5,0.2,1.8,0.3c0.5,0.2,0.8,0.4,1.1,0.7c0.3,0.3,0.6,0.7,0.7,1.1
							c0.1,0.3,0.3,0.9,0.3,1.8c0,1,0.1,1.3,0.1,4s0,2.9-0.1,4c0,1-0.2,1.5-0.3,1.8c-0.2,0.5-0.4,0.8-0.7,1.1
							c-0.3,0.3-0.7,0.6-1.1,0.7c-0.3,0.1-0.9,0.3-1.8,0.3c-1,0-1.3,0.1-4,0.1c-2.6,0-2.9,0-4-0.1c-1,0-1.5-0.2-1.8-0.3
							c-0.5-0.2-0.8-0.4-1.1-0.7c-0.3-0.3-0.6-0.7-0.7-1.1c-0.1-0.3-0.3-0.9-0.3-1.8c0-1-0.1-1.3-0.1-4s0-2.9,0.1-4
							c0-1,0.2-1.5,0.3-1.8c0.2-0.5,0.4-0.8,0.7-1.1s0.7-0.6,1.1-0.7c0.3-0.1,0.9-0.3,1.8-0.3C104.4,13.4,104.8,13.4,107.4,13.4
							 M107.4,11.6c-2.7,0-3,0-4,0.1c-1,0-1.8,0.2-2.4,0.5c-0.6,0.2-1.2,0.6-1.7,1.1c-0.5,0.5-0.9,1.1-1.1,1.7
							c-0.2,0.6-0.4,1.3-0.5,2.4c0,1-0.1,1.4-0.1,4s0,3,0.1,4c0,1,0.2,1.8,0.5,2.4c0.2,0.6,0.6,1.2,1.1,1.7c0.5,0.5,1.1,0.9,1.7,1.1
							c0.6,0.2,1.3,0.4,2.4,0.5c1,0,1.4,0.1,4,0.1c2.7,0,3,0,4-0.1c1,0,1.8-0.2,2.4-0.5c0.6-0.2,1.2-0.6,1.7-1.1
							c0.5-0.5,0.9-1.1,1.1-1.7c0.2-0.6,0.4-1.3,0.5-2.4c0-1,0.1-1.4,0.1-4s0-3-0.1-4c0-1-0.2-1.8-0.5-2.4c-0.2-0.6-0.6-1.2-1.1-1.7
							s-1.1-0.9-1.7-1.1c-0.6-0.2-1.3-0.4-2.4-0.5C110.4,11.6,110,11.6,107.4,11.6z"/>
					</g>
				</g>
				<path class="st1" d="M107.4,16.4c-2.8,0-5,2.2-5,5c0,2.8,2.2,5,5,5s5-2.2,5-5S110.1,16.4,107.4,16.4 M107.4,24.7
					c-1.8,0-3.3-1.5-3.3-3.3c0-1.8,1.5-3.3,3.3-3.3c1.8,0,3.3,1.5,3.3,3.3C110.6,23.2,109.2,24.7,107.4,24.7z"/>
				<path class="st1" d="M113.8,16.2c0,0.6-0.5,1.2-1.2,1.2c-0.6,0-1.2-0.5-1.2-1.2s0.5-1.2,1.2-1.2C113.2,15,113.8,15.5,113.8,16.2
					"/>
			</g>
		</g>
		<g>
			<path class="st5" d="M172,21.5c0,11.9-9.6,21.5-21.5,21.5c-11.9,0-21.5-9.6-21.5-21.5S138.6,0,150.5,0C162.3,0,172,9.6,172,21.5"
				/>
			<path class="st1" d="M156.9,14.7H144c-1.8,0-3.3,1.5-3.3,3.3v7.1c0,1.8,1.5,3.3,3.3,3.3h12.9c1.8,0,3.3-1.5,3.3-3.3V18
				C160.3,16.2,158.8,14.7,156.9,14.7 M147.9,25.5l-0.1-7.8l6.8,3.7L147.9,25.5z"/>
		</g>
	</g>
</g>
<g>
	<g id="LinKeDin_2_">
		<circle class="st6" cx="193.6" cy="21.4" r="21.4"/>
		<g id="LinkedIn_1_">
			<rect x="184.1" y="18.2" class="st1" width="4.1" height="12.9"/>
			<path class="st1" d="M199.2,18c-2.3,0-3.8,1.2-4.1,2.1v-2h-4.6c0.1,1.1,0,12.9,0,12.9h4.6v-6.9c0-0.4,0-0.8,0.1-1.1
				c0.3-0.8,1-1.6,2.2-1.6c1.6,0,2.3,1.2,2.3,2.9V31h4.6v-7.2C204.3,19.9,202.1,18,199.2,18z"/>
			<path class="st1" d="M186,12.1c-1.5,0-2.5,1-2.5,2.3c0,1.2,1,2.2,2.4,2.2h0.1c1.5,0,2.5-1,2.5-2.3
				C188.5,13.1,187.6,12.1,186,12.1z"/>
		</g>
	</g>
</g>
</svg>
