<?xml version="1.0" encoding="utf-8"?>
<!-- Generator: Adobe Illustrator 16.0.0, SVG Export Plug-In . SVG Version: 6.00 Build 0)  -->
<!DOCTYPE svg PUBLIC "-//W3C//DTD SVG 1.1//EN" "http://www.w3.org/Graphics/SVG/1.1/DTD/svg11.dtd">
<svg version="1.1" id="Layer_1" xmlns="http://www.w3.org/2000/svg" xmlns:xlink="http://www.w3.org/1999/xlink" x="0px" y="0px"
	 width="75px" height="914.125px" viewBox="0 0 75 914.125" enable-background="new 0 0 75 914.125" xml:space="preserve">
<path fill="#DEB209" d="M12.394,271.94l0.448,0.002c0,0-0.232,7.424-5.046,12.236c-4.814,4.816-12.235,5.045-12.235,5.045
	l-0.227-17.166H-4.67l0.002-0.117l-0.002-0.119h0.004l0.227-17.166c0,0,7.421,0.229,12.235,5.047
	c4.813,4.811,5.046,12.234,5.046,12.234L12.394,271.94z M-4.672,243.751c0,0,10.259-1.444,20.061,8.356
	c9.802,9.803,8.357,20.062,8.357,20.062l9.023-0.209c0,0,0.72-14.873-10.875-26.468C10.296,233.897-4.583,234.61-4.583,234.61
	L-4.672,243.751 M-4.557,223.219c0,0,19.604-0.581,34.451,14.268c14.848,14.85,14.152,34.335,14.152,34.335l9.627-0.114
	c0,0,2.086-22.042-16.937-41.063c-19.023-19.025-41.06-17.403-41.06-17.403L-4.557,223.219"/>
<path fill="#EC8C22" d="M38.518,127.121l-8.021-13.963c0,0-1.746-1.738-3.193-1.654c-1.447,0.085-2.754,0.087-4.354,3.81
	c-1.604,3.726-8.639,20.109-21.712,27.621c-13.073,7.512-17.288,9.935-17.288,9.935s-5.01,3.646-2.068,8.77
	c2.945,5.123,4.318,7.513,4.318,7.513s3.411,3.657,7.347,1.397c3.937-2.262,5.061-2.908,5.061-2.908s2.418,11.689,14.237,18.92
	c0,0,11.223,0.658,13.249-9.482c0,0-9.49,0.406-10.07-7.113c0,0-7.688-2.967-1.655-10.688c0,0,13.254-7.197,35.062-3.088
	c0,0,4.215-2.422,2.094-6.439c-2.121-4.015-8.002-13.924-8.002-13.924s4.521-2.213,1.938-6.712
	C42.875,124.617,38.518,127.121,38.518,127.121 M46.357,150.848c-18.73-3.632-33.73,3.453-33.73,3.453l-5.314-9.25
	c15.714-13.33,19.947-27.438,19.947-27.438L46.357,150.848z"/>
<path fill="#78BE43" d="M27.555,89.679L-7.184,73.551c-0.494-0.23-3.047-1.626-4.744-6.588c-1.968-5.75,4.026-10.68,4.717-11.225
	l27.285-22.12l8.793-18.94l-2.473-1.146c-1.318-0.612-1.89-2.177-1.278-3.495c0.612-1.318,2.177-1.891,3.495-1.279l7.247,3.365
	L24.334,36.938L-3.924,59.85c-1.266,1.01-3.633,3.633-3.025,5.409c0.878,2.566,1.905,3.429,2.098,3.572l33.771,15.68
	c0.781,0.013,2.203-0.095,3.174-0.702c1.814-1.133,2.882-2.347,2.966-5.201c0.119-3.966-0.577-36.029-0.583-36.353l-0.014-0.611
	l11.521-24.82l7.229,3.357c1.317,0.612,1.892,2.176,1.278,3.494c-0.612,1.318-2.178,1.891-3.494,1.279l-2.459-1.142l-8.792,18.94
	c0.101,4.613,0.687,32.176,0.569,36.011c-0.166,5.583-3.185,8.103-5.438,9.511c-2.904,1.812-6.492,1.493-6.892,1.451L27.555,89.679z
	 M32.241,78.123c0,0-0.168,2.483-1.504,3.24c-1.337,0.758-2.233,0.145-2.233,0.145L-2.273,67.219c0,0-1.146-0.926-1.504-2.273
	c-0.359-1.348,1.354-2.916,1.354-2.916l19.132-15.336l15.063,6.994L32.241,78.123 M8.062,66.458c1.873,0.871,4.101,0.056,4.97-1.819
	c0.871-1.875,0.058-4.1-1.818-4.971c-1.874-0.87-4.101-0.056-4.971,1.819C5.373,63.362,6.187,65.588,8.062,66.458 M19.627,65.3
	c3.023,1.404,6.613,0.091,8.019-2.934c1.403-3.025,0.092-6.615-2.934-8.019c-3.025-1.404-6.615-0.092-8.019,2.934
	C15.288,60.305,16.602,63.896,19.627,65.3"/>
<path fill="#00B5E1" d="M44.188,325.555c0,0-10.493-13.361-20.999-6.685c-10.506,6.685-8.593,21.959-8.593,21.959
	s-19.1-4.731-25.774-11.916c-6.688-7.171-10.632-9.771-8.28,3.01c2.504,13.543,6.365,13.356,6.365,13.356l-14.002,0.646
	c0,0,19.1,12.411,22.914,13.366c3.819,0.955-9.549-2.866-11.455,3.812c-1.916,6.693,11.133,9.23,18.776,9.23
	c7.637,0-15.601,7.639-24.979,9.547c0,0,77.489,17.188,66.026-46.78l9.554-1.904l-5.734-4.452l5.734-5.099L44.188,325.555z"/>
<polygon fill="#00B5E1" points="53.157,524.07 31.596,530.385 36.387,534.797 18.38,552.758 4.646,538.92 -9,552.484 -9,568.061 
	4.56,555.072 18.434,569.053 44.514,542.279 49.475,546.848 "/>
<g>
	<path fill="#00B5E1" d="M37.352,618.858H1.066c-5.636,0-10.206,4.566-10.206,10.206v7.26H8.2c0,0,4.331-5.408,11.77-5.408
		s12.092,5.408,12.092,5.408h15.495v-7.26C47.557,623.428,42.986,618.858,37.352,618.858z M40.346,631.275
		c0,0.939-0.765,1.706-1.707,1.706H32.41c-0.942,0-1.707-0.767-1.707-1.706v-6.23c0-0.939,0.765-1.707,1.707-1.707h6.229
		c0.942,0,1.707,0.768,1.707,1.707V631.275z"/>
	<circle fill="#00B5E1" cx="20.166" cy="647.32" r="12.613"/>
	<path fill="#00B5E1" d="M34.822,639.99c1.104,2.205,1.729,4.691,1.729,7.33c0,9.051-7.337,16.388-16.387,16.388
		c-9.051,0-16.387-7.337-16.387-16.388c0-2.639,0.626-5.125,1.732-7.33H-9.14v25.048c0,5.636,4.569,10.205,10.206,10.205h36.286
		c5.637,0,10.205-4.569,10.205-10.205V639.99H34.822z"/>
</g>
<g>
	<path fill="#DEB209" d="M13.635,728.242c-17.467,0-20.354,15.729-14.941,23.852c5.415,8.124,6.317,13.047,6.498,14.194
		s0.181,2.771,1.444,2.771h7.108"/>
	<path fill="#DEB209" d="M13.313,728.242c17.468,0,20.356,15.729,14.941,23.852c-5.415,8.124-6.317,13.047-6.498,14.194
		c-0.181,1.147-0.181,2.771-1.444,2.771h-7.106"/>
	<path fill="#DEB209" d="M21.436,773.12c0,0.848-0.687,1.535-1.535,1.535H6.726c-0.848,0-1.534-0.688-1.534-1.535l0,0
		c0-0.847,0.687-1.533,1.534-1.533h13.175C20.749,771.587,21.436,772.273,21.436,773.12L21.436,773.12z"/>
	<path fill="#DEB209" d="M21.436,777.911c0,0.847-0.687,1.533-1.535,1.533H6.726c-0.848,0-1.534-0.688-1.534-1.533l0,0
		c0-0.849,0.687-1.534,1.534-1.534h13.175C20.749,776.377,21.436,777.062,21.436,777.911L21.436,777.911z"/>
	<path fill="#DEB209" d="M19.289,782.715c0,0.85-0.688,1.535-1.535,1.535H8.873c-0.847,0-1.534-0.688-1.534-1.535l0,0
		c0-0.847,0.687-1.533,1.534-1.533h8.881C18.601,781.182,19.289,781.868,19.289,782.715L19.289,782.715z"/>
	<path fill="#DEB209" d="M51.162,747.118c0,1.648-1.338,2.987-2.988,2.987H36.97c-1.65,0-2.988-1.339-2.988-2.987l0,0
		c0-1.65,1.338-2.988,2.988-2.988h11.204C49.824,744.13,51.162,745.468,51.162,747.118L51.162,747.118z"/>
	<path fill="#DEB209" d="M42.605,717.941c1.098,1.23,0.986,3.119-0.244,4.219l-8.365,7.453c-1.231,1.097-3.121,0.986-4.219-0.244
		l0,0c-1.098-1.232-0.989-3.121,0.243-4.219l8.365-7.453C39.618,716.6,41.507,716.709,42.605,717.941L42.605,717.941z"/>
	<path fill="#DEB209" d="M-24.187,747.118c0,1.648,1.338,2.987,2.988,2.987h11.203c1.65,0,2.988-1.339,2.988-2.987l0,0
		c0-1.65-1.338-2.988-2.988-2.988h-11.203C-22.849,744.13-24.187,745.468-24.187,747.118L-24.187,747.118z"/>
	<path fill="#DEB209" d="M-15.63,717.941c-1.098,1.23-0.988,3.119,0.244,4.219l8.365,7.453c1.231,1.097,3.121,0.986,4.219-0.244l0,0
		c1.098-1.232,0.988-3.121-0.243-4.219l-8.365-7.453C-12.643,716.6-14.532,716.709-15.63,717.941L-15.63,717.941z"/>
	<path fill="#DEB209" d="M13.347,706.943c1.65,0.006,2.983,1.349,2.977,2.999l-0.041,11.204c-0.006,1.647-1.349,2.98-3,2.977l0,0
		c-1.65-0.006-2.983-1.349-2.978-2.999l0.041-11.203C10.353,708.271,11.695,706.938,13.347,706.943L13.347,706.943z"/>
</g>
<path fill="#EB8B23" d="M14.53,822.158l-28.489,52.226H46.37L14.53,822.158z M15.22,868.136c-2.202,0-3.986-1.796-3.986-4.011
	c0-2.216,1.784-4.012,3.986-4.012c2.202,0,3.986,1.796,3.986,4.012C19.206,866.34,17.422,868.136,15.22,868.136z M17.095,857.72
	h-3.75l-2.301-10.986v-4.964h8.354v4.964L17.095,857.72z"/>
<g>
	<g>
		<path fill="#002855" d="M-16.312,497.042l-0.508-2.997c-0.048-0.284-4.664-28.799,9.907-56.182
			c5.745-10.796,16.185-18.506,31.031-22.915c11.575-3.438,22.25-3.705,25.247-3.705c0.564,0,0.867,0.009,0.867,0.009l1.352,0.041
			l-4.246,6.368l12.443-2.818v0.939c0,6.862-5.447,14.326-6.891,16.183l5.143,9.781l0.25,8.448l9.033,21.42l-3.066,1.395
			c-1.295,7.625-10.135,15.584-10.517,15.925l-0.252,0.225l-0.335-0.039c-10.4-1.229-17.58-4.623-21.337-10.088
			c-3.577-5.201-2.798-10.51-2.549-11.752c-0.731-0.854-6.403-3.117-9.606-3.363c-2.883-0.222-5.852-2.358-6.871-3.158
			c-19.82,8.509-28.069,33.145-28.15,33.395L-16.312,497.042z M48.812,412.746c-3.548,0.035-13.511,0.445-24.267,3.64
			C10.099,420.677-0.04,428.14-5.588,438.568c-11.601,21.801-10.838,44.331-10.104,52.257c2.904-6.97,11.715-24.744,28.312-31.625
			l0.425-0.177l0.35,0.3c0.033,0.028,3.387,2.868,6.375,3.098c1.599,0.123,4.155,0.785,6.511,1.687
			c4.235,1.619,4.435,2.619,4.5,2.947l0.033,0.166l-0.041,0.164c-0.014,0.056-1.334,5.577,2.288,10.821
			c3.467,5.021,10.167,8.177,19.919,9.383c1.464-1.367,8.975-8.67,9.845-15.193l0.056-0.411l2.486-1.131l-8.611-20.42l-0.262-8.319
			l-5.441-10.26l0.342-0.417c0.066-0.08,6.306-7.741,6.85-14.708l-14.236,3.224L48.812,412.746z"/>
	</g>
	<g>
		<path fill="#002855" d="M52.193,483.946c-0.062,0.035-0.1,0.057-0.1,0.057S53.497,484.441,52.193,483.946z"/>
		<path fill="#002855" d="M54.523,452.06l-0.27-9.367l-6.615-11.611c0,0,4.687-5.781,6.209-10.125l-13.904,2.025l3.645-7.426
			c0,0-36.856,1.35-47.656,28.351c0,0,5.265-8.64,14.851-14.175c0,0-18.496,18.63-23.761,48.736c0,0,7.831-17.01,27.001-24.165
			c0,0,4.185,4.59,10.732,5.67s9.248,6.209,9.383,7.02c0,0-3.233,9.497,9.45,13.906c5.316,1.849,7.665,2.69,8.605,3.048
			c0.847-0.488,7.082-4.383,7.46-13.443l2.709-1.083C62.362,469.42,58.438,457.917,54.523,452.06z M48.988,423.656l-2.768,4.466
			l-2.768-3.251L48.988,423.656z M53.983,478.333c-2.295,4.32-8.775-1.215-8.775-1.215c-12.098-1.561-7.021-11.206-7.021-11.206
			l-5.94-5.535l5.94-2.295c-16.335-1.215-21.195-3.645-22.41-12.15s6.075-14.851,6.075-14.851
			c-9.18,2.699-10.666,16.741-10.666,16.741l-11.88,11.07c9.585-38.881,37.261-39.557,37.261-39.557
			c-5.711,3.694-4.455,11.341-4.455,11.341s2.565-2.7,5.265-1.645s7.425,12.039,7.425,12.039c0.945-0.271,1.418-5.535,1.418-5.535
			l5.197,7.966l0.405,8.558c1.08,1.808,6.886,16.013,6.886,16.013l-1.891,0.405C57.764,471.987,56.278,474.013,53.983,478.333z"/>
	</g>
	<polygon fill="#002855" points="45.613,467.128 48.988,468.478 48.988,473.202 	"/>
	<path fill="#002855" d="M39.133,448.227c-2.16-4.051-10.8-12.825-10.8-12.825l5.265,8.777c-1.485,4.727,2.835,5.533,3.645,5.69
		c0.81,0.157,2.025,3.087,2.025,3.087l1.351-6.079L39.133,448.227z M36.298,448.429c-0.41,0-0.743-0.332-0.743-0.742
		s0.333-0.742,0.743-0.742c0.41,0,0.742,0.332,0.742,0.742S36.708,448.429,36.298,448.429z"/>
</g>
</svg>
