<?xml version="1.0" encoding="utf-8"?>
<!-- Generator: Adobe Illustrator 16.0.0, SVG Export Plug-In . SVG Version: 6.00 Build 0)  -->
<!DOCTYPE svg PUBLIC "-//W3C//DTD SVG 1.1//EN" "http://www.w3.org/Graphics/SVG/1.1/DTD/svg11.dtd">
<svg version="1.1" id="Layer_1" xmlns="http://www.w3.org/2000/svg" xmlns:xlink="http://www.w3.org/1999/xlink" x="0px" y="0px"
	 width="124px" height="20px" viewBox="-12 -1.92 124 20" enable-background="new -12 -1.92 124 20" xml:space="preserve">
<g>
	<path fill="#FFFFFF" d="M60.88,4.15L60.88,4.15c0.12,0.81,1.35,6.63,1.35,6.63h-2.69L60.88,4.15z M50.66,17.68h7.12l0.54-2.39h5.08
		l0.68,2.39h7.12L64.53-1.34h-7.47L50.66,17.68z"/>
	<path fill="#FFFFFF" d="M33.18-1.34h6.9c6.26,0,11.05,2.79,11.05,9.78c0,5.63-3.9,9.24-9.38,9.24l-8.57-0.01V-1.34z M39.95,12.22
		h0.46c2.26,0,3.93-1.32,3.93-3.8c0-2.67-1.48-4.16-3.97-4.16h-0.43V12.22z"/>
	<path fill="#FFFFFF" d="M29.07-0.74l0.36,3.12c0.09,0.74,0.52,2.52-0.01,2.28c-0.34-0.15-0.62-0.95-0.89-1.67
		c-0.14-0.36-0.81-2.08-0.98-2.21c-0.84-0.61-2.95-1.3-4.37-1.31c-4.32-0.02-7.17,3.08-7.17,8.57c0,3.93,1.94,8.66,6.88,8.66
		c1.77,0,5.15-0.54,6.07-2.99c0.42-1.1,0.8-2.09,1.07-1.79c0.2,0.22-0.06,1.1-0.18,1.58c-0.58,2.27-0.61,2.95-0.8,3.04
		c-2.23,1.09-5.09,1.45-7.59,1.45c-7.95,0-10.7-4.51-10.7-9.02c0-7.83,4.95-11.07,12.62-10.78C25.31-1.74,27.26-1.41,29.07-0.74"/>
	<path fill="#FFFFFF" d="M5.58-0.39L4.3-0.83C3.87-1.2,4.39-1.31,4.39-1.31s1.84,0.33,6.43-0.04c0,0,0.4,0.08,0.13,0.39L9.44-0.33
		C8.46,0.08,8.46-0.16,8.46,0.89l-0.01,9.69c0,7.58-7.94,7.41-9.48,7.41c-0.74,0-7.96,0-7.96-6.09V1.65c0-1.79,0.19-1.74-0.41-1.95
		l-1.84-0.67c0,0-0.31-0.43,0.24-0.4c1.51,0.07,3.68,0.39,8.75,0.03c0,0,0.44,0.1,0.15,0.42l-1.47,0.42
		c-1.17,0.51-1.01,0.12-1.04,1.28l0.03,10.12c0,2.48,1.31,5.55,5.39,5.55c5.62,0,5.68-4.73,5.68-5.78L6.5,0.64
		C6.56-0.31,6.43-0.04,5.58-0.39"/>
	<path fill="#FFFFFF" d="M96.18,16.22l1.96-5.04l0.34,0.28c1.21,0.96,2.84,1.77,4.39,1.8c1.38,0.03,2.05-0.33,1.87-1.46
		c-0.14-0.85-1.12-1-1.74-1.12l-1.35-0.26c-2.63-0.48-4.84-2.05-4.84-5.03c0-4.51,4-7.04,8.03-7.04c2.12,0,4.05,0.52,5.87,1.67
		l-1.71,4.47c-0.94-0.65-2.35-1.58-4.14-1.64c-0.59-0.02-1.94,0.28-1.51,1.61c0.19,0.57,1.02,0.81,1.54,0.93l1.52,0.36
		c2.85,0.65,4.91,2.22,4.91,5.44c0,4.54-4.03,6.78-8.02,6.78C100.98,17.97,98.27,17.32,96.18,16.22"/>
	<rect x="88" y="-1.34" fill="#FFFFFF" width="6.74" height="19.02"/>
	<polygon fill="#FFFFFF" points="80.28,-1.34 87.29,-1.34 80.13,17.68 74.43,17.68 67.28,-1.34 74.28,-1.34 77.28,10.14 	"/>
</g>
</svg>
