<?xml version="1.0" encoding="utf-8"?>
<!-- Generator: Adobe Illustrator 16.0.0, SVG Export Plug-In . SVG Version: 6.00 Build 0)  -->
<!DOCTYPE svg PUBLIC "-//W3C//DTD SVG 1.1//EN" "http://www.w3.org/Graphics/SVG/1.1/DTD/svg11.dtd">
<svg version="1.1" id="Layer_1" xmlns="http://www.w3.org/2000/svg" xmlns:xlink="http://www.w3.org/1999/xlink" x="0px" y="0px"
	 width="100px" height="100px" viewBox="0 0 100 100" enable-background="new 0 0 100 100" xml:space="preserve">
<g>
	<path fill="#335379" d="M38.85,26.142c-7.932,7.928-7.932,20.782,0,28.712c7.931,7.929,20.785,7.929,28.716,0
		c7.928-7.927,7.928-20.784,0-28.712C59.635,18.21,46.778,18.21,38.85,26.142z M62.748,50.042c-5.27,5.272-13.817,5.272-19.083,0
		c-5.276-5.272-5.276-13.82-0.003-19.09c5.269-5.271,13.814-5.271,19.086,0C68.02,36.225,68.02,44.77,62.748,50.042z M39.457,54.854
		L28.38,79.808h49.901L66.859,54.854l-5.297,4.149l6.428,15.16L38.671,73.96l5.987-15.041"/>
</g>
</svg>
