<?xml version="1.0" encoding="utf-8"?>
<!-- Generator: Adobe Illustrator 16.0.4, SVG Export Plug-In . SVG Version: 6.00 Build 0)  -->
<!DOCTYPE svg PUBLIC "-//W3C//DTD SVG 1.1//EN" "http://www.w3.org/Graphics/SVG/1.1/DTD/svg11.dtd">
<svg version="1.1" id="Layer_1" xmlns="http://www.w3.org/2000/svg" xmlns:xlink="http://www.w3.org/1999/xlink" x="0px" y="0px"
	 width="16px" height="16px" viewBox="0 0 16 16" enable-background="new 0 0 16 16" xml:space="preserve">
<path fill="#727272" d="M14.889,1.143h-1.175v1.455C13.714,3.4,12.885,4,12.027,4c-0.856,0-1.742-0.6-1.742-1.402V1.143H5.714v1.455
	C5.714,3.4,4.857,4,4,4S2.286,3.4,2.286,2.598V1.143H1.111C0.497,1.143,0,1.619,0,2.193v12.769c0,0.575,0.497,1.039,1.111,1.039
	h13.777c0.614,0,1.111-0.464,1.111-1.043V2.193C16,1.618,15.503,1.143,14.889,1.143z M14.286,13.854c0,0.235-0.207,0.43-0.457,0.43
	L2.168,14.287c-0.25-0.012-0.454-0.2-0.454-0.438V5.582c0-0.246,0.21-0.439,0.476-0.439h11.625c0.261,0,0.471,0.189,0.471,0.434
	L14.286,13.854L14.286,13.854z"/>
<path fill="#727272" d="M5.143,2.286C5.143,2.918,4.632,3.43,4,3.43l0,0c-0.632,0-1.143-0.512-1.143-1.144V1.143
	C2.857,0.51,3.368-0.001,4-0.001l0,0c0.632,0,1.143,0.511,1.143,1.144V2.286z"/>
<path fill="#727272" d="M13.143,2.286c0,0.632-0.511,1.144-1.143,1.144l0,0c-0.632,0-1.143-0.512-1.143-1.144V1.143
	c0-0.633,0.511-1.144,1.143-1.144l0,0c0.632,0,1.143,0.511,1.143,1.144V2.286z"/>
</svg>
