<?xml version="1.0" encoding="utf-8"?>
<!-- Generator: Adobe Illustrator 16.0.4, SVG Export Plug-In . SVG Version: 6.00 Build 0)  -->
<!DOCTYPE svg PUBLIC "-//W3C//DTD SVG 1.1//EN" "http://www.w3.org/Graphics/SVG/1.1/DTD/svg11.dtd">
<svg version="1.1" id="Layer_1" xmlns:sketch="http://www.bohemiancoding.com/sketch/ns"
	 xmlns="http://www.w3.org/2000/svg" xmlns:xlink="http://www.w3.org/1999/xlink" x="0px" y="0px" width="15.17px" height="15.17px"
	 viewBox="0 0 15.17 15.17" enable-background="new 0 0 15.17 15.17" xml:space="preserve">
<title></title>
<desc></desc>
<g id="Page-1">
	<g id="Icons-Device" transform="translate(-44.000000, 0.000000)">
		<g id="access-time" transform="translate(44.000000, 0.000000)">
			<path id="Shape" fill="#727272" fill-opacity="0.9" d="M7.58,0C3.41,0,0,3.41,0,7.58c0,4.17,3.41,7.58,7.58,7.58
				c4.17,0,7.58-3.41,7.58-7.58C15.17,3.41,11.75,0,7.58,0L7.58,0z M7.58,13.26c-3.12,0-5.68-2.55-5.68-5.67
				c0-3.12,2.55-5.68,5.68-5.68c3.12,0,5.67,2.55,5.67,5.68C13.26,10.71,10.71,13.26,7.58,13.26z M8.19,3.58H6.98V8.4L10,10.29
				l0.64-1.04L8.19,7.76V3.58z"/>
		</g>
	</g>
</g>
</svg>
