<?xml version="1.0" encoding="utf-8"?>
<!-- Generator: Adobe Illustrator 16.0.4, SVG Export Plug-In . SVG Version: 6.00 Build 0)  -->
<!DOCTYPE svg PUBLIC "-//W3C//DTD SVG 1.1//EN" "http://www.w3.org/Graphics/SVG/1.1/DTD/svg11.dtd">
<svg version="1.1" id="Layer_1" xmlns:sketch="http://www.bohemiancoding.com/sketch/ns"
	 xmlns="http://www.w3.org/2000/svg" xmlns:xlink="http://www.w3.org/1999/xlink" x="0px" y="0px" width="18.21px" height="12.08px"
	 viewBox="0.12 1.96 18.21 12.08" enable-background="new 0.12 1.96 18.21 12.08" xml:space="preserve">
<title></title>
<desc></desc>
<g id="Page-1">
	<g id="Core" transform="translate(-504.000000, -88.000000)">
		<g id="cloud-download" transform="translate(504.000000, 88.000000)">
			<path id="Shape" fill="#727272" d="M14.86,6.49c-0.53-2.57-2.79-4.53-5.59-4.53c-2.19,0-4.08,1.21-4.98,3.02
				c-2.34,0.3-4.08,2.19-4.08,4.53c0,2.49,2.04,4.53,4.53,4.53h9.81c2.12,0,3.78-1.66,3.78-3.78C18.33,8.3,16.74,6.64,14.86,6.49
				L14.86,6.49z M13.04,8.75l-3.77,3.78L5.49,8.75h2.26V5.73h3.02v3.02H13.04L13.04,8.75z"/>
		</g>
	</g>
</g>
</svg>
