<?xml version="1.0" encoding="utf-8"?>
<!-- Generator: Adobe Illustrator 16.0.4, SVG Export Plug-In . SVG Version: 6.00 Build 0)  -->
<!DOCTYPE svg PUBLIC "-//W3C//DTD SVG 1.1//EN" "http://www.w3.org/Graphics/SVG/1.1/DTD/svg11.dtd">
<svg version="1.1" id="Layer_1" xmlns="http://www.w3.org/2000/svg" xmlns:xlink="http://www.w3.org/1999/xlink" x="0px" y="0px"
	 width="16px" height="16px" viewBox="0 0 16 16" enable-background="new 0 0 16 16" xml:space="preserve">
<g id="Livello_1_1_">
</g>
<g>
	<path fill="#727272" d="M15.632,3.69l-3.685-2.473c-0.161-0.109-0.365-0.109-0.53,0L8.001,3.511L4.585,1.218
		c-0.161-0.109-0.369-0.109-0.531,0L0.371,3.69c-0.154,0.102-0.25,0.292-0.25,0.492v9.885c0,0.208,0.098,0.398,0.26,0.504
		c0.161,0.103,0.362,0.099,0.52-0.007l3.417-2.294l3.416,2.294c0.165,0.109,0.365,0.109,0.53,0l3.419-2.294l3.417,2.294
		c0.081,0.053,0.173,0.084,0.263,0.084c0.088,0,0.176-0.024,0.253-0.074c0.163-0.103,0.261-0.295,0.261-0.503V4.186
		C15.881,3.983,15.786,3.792,15.632,3.69z M3.745,11.31l-2.499,1.738V4.545l2.499-1.737V11.31z M4.871,11.296V6.99
		c0.035,0.025,0.07,0.046,0.101,0.071l0.328-0.458C5.166,6.508,5.018,6.417,4.871,6.339v-3.55l2.568,1.725v3.823
		C7.245,8.271,7.055,8.183,6.862,8.06L6.562,8.538C6.802,8.689,7.04,8.801,7.291,8.882l0.147-0.449v4.583L4.871,11.296z
		 M8.563,13.017V9.027c0.008,0,0.016,0,0.018,0C8.684,9.02,8.785,9.01,8.88,8.995L8.793,8.439C8.719,8.45,8.642,8.46,8.56,8.464
		v-3.95l2.568-1.725v4.194l-0.187-0.169c-0.105,0.117-0.202,0.232-0.302,0.341c-0.063,0.075-0.128,0.144-0.187,0.214l0.422,0.374
		c0.063-0.07,0.126-0.144,0.189-0.218c0.021-0.025,0.042-0.049,0.067-0.075v3.842L8.563,13.017z M14.756,13.017l-2.499-1.703V6.488
		c0.128-0.058,0.261-0.1,0.392-0.128l-0.113-0.552c-0.095,0.017-0.187,0.045-0.281,0.074V2.804l2.498,1.706v8.506H14.756z"/>
	<path fill="#727272" d="M2.475,7.891c0.067-0.207,0.123-0.387,0.25-0.573L2.26,7C2.088,7.254,2.011,7.49,1.936,7.723L1.929,7.75
		l0.535,0.172L2.475,7.891z"/>
	<path fill="#727272" d="M3.526,6.663C3.604,6.621,3.477,6.624,3.562,6.6L3.389,6.064C3.273,6.103,3.161,6.149,3.051,6.21
		C2.917,6.283,2.781,6.381,2.654,6.501l0.384,0.412C3.128,6.825,3.431,6.712,3.526,6.663z"/>
	<path fill="#727272" d="M9.418,8.246l0.247,0.507c0.232-0.113,0.45-0.26,0.672-0.458L9.964,7.874
		C9.781,8.035,9.604,8.158,9.418,8.246z"/>
	<path fill="#727272" d="M5.953,7.25C5.918,7.208,5.884,7.166,5.848,7.124L5.418,7.49C5.455,7.532,5.489,7.571,5.52,7.613
		C5.648,7.764,5.778,7.92,5.928,8.063l0.387-0.408C6.189,7.532,6.077,7.395,5.953,7.25z"/>
	<polygon fill="#727272" points="13.338,6.966 13.699,6.6 14.062,6.966 14.463,6.565 14.097,6.203 14.463,5.84 14.062,5.438 
		13.699,5.804 13.338,5.438 12.937,5.84 13.303,6.203 12.937,6.565 	"/>
</g>
</svg>
