<?xml version="1.0" encoding="utf-8"?>
<!-- Generator: Adobe Illustrator 16.0.4, SVG Export Plug-In . SVG Version: 6.00 Build 0)  -->
<!DOCTYPE svg PUBLIC "-//W3C//DTD SVG 1.1//EN" "http://www.w3.org/Graphics/SVG/1.1/DTD/svg11.dtd">
<svg version="1.1" id="Layer_1" xmlns="http://www.w3.org/2000/svg" xmlns:xlink="http://www.w3.org/1999/xlink" x="0px" y="0px"
	 width="16px" height="16px" viewBox="0 0 16 16" enable-background="new 0 0 16 16" xml:space="preserve">
<g>
	<path fill="#FFFFFF" d="M10.83203,11.07227V7.80811c0-0.16797-0.01172-0.33008-0.03516-0.48584
		c-0.02539-0.15576-0.06836-0.29004-0.13281-0.40186c-0.06445-0.1123-0.15039-0.20215-0.25781-0.27002
		s-0.25-0.10205-0.42578-0.10205c-0.16797,0-0.31445,0.03613-0.4375,0.10791c-0.125,0.07178-0.22852,0.16797-0.3125,0.28809
		S9.08398,7.20215,9.04492,7.3584C9.00391,7.51416,8.98438,7.67627,8.98438,7.84424v3.22803H7.01514v-3.4082
		c0-0.34375-0.06836-0.61572-0.20312-0.81592c-0.13672-0.19971-0.35156-0.2998-0.64844-0.2998
		c-0.31201,0-0.5542,0.12402-0.72607,0.37207S5.17969,7.47217,5.17969,7.83203v3.24023H3.19971V5.09619h1.90771v0.82812h0.02441
		c0.07178-0.12793,0.16162-0.25195,0.27002-0.37207C5.50977,5.43213,5.63965,5.32617,5.7915,5.23438
		s0.32227-0.16602,0.51074-0.22217c0.1875-0.05566,0.39258-0.08398,0.61719-0.08398c0.43164,0,0.79883,0.08838,1.09766,0.26416
		c0.30078,0.17578,0.53516,0.42773,0.70312,0.75586C8.91992,5.63623,9.17578,5.38818,9.48828,5.2041
		c0.3125-0.18359,0.69141-0.27588,1.14062-0.27588c0.40625,0,0.75,0.07422,1.02539,0.22217s0.49805,0.33984,0.66602,0.57568
		c0.16797,0.23633,0.28906,0.50049,0.36523,0.79199c0.07617,0.29248,0.11523,0.57812,0.11523,0.8584v3.6958H10.83203z"/>
</g>
</svg>
