<?xml version="1.0" encoding="utf-8"?>
<!-- Generator: Adobe Illustrator 16.0.4, SVG Export Plug-In . SVG Version: 6.00 Build 0)  -->
<!DOCTYPE svg PUBLIC "-//W3C//DTD SVG 1.1//EN" "http://www.w3.org/Graphics/SVG/1.1/DTD/svg11.dtd">
<svg version="1.1" id="Layer_1" xmlns="http://www.w3.org/2000/svg" xmlns:xlink="http://www.w3.org/1999/xlink" x="0px" y="0px"
	 width="16px" height="16px" viewBox="0 0 16 16" enable-background="new 0 0 16 16" xml:space="preserve">
<g id="Page-1">
	<g id="Icons-Communication" transform="translate(-85.000000, -126.000000)">
		<g id="phone" transform="translate(85.000000, 126.000000)">
			<path id="Shape" fill="#727272" d="M3.801,7.067c1.088,2.177,2.955,3.966,5.133,5.134l1.711-1.711
				c0.234-0.234,0.544-0.312,0.777-0.156c0.856,0.31,1.79,0.466,2.8,0.466c0.467,0,0.778,0.311,0.778,0.778v2.645
				C15,14.689,14.689,15,14.223,15C6.912,15,1,9.09,1,1.778C1,1.312,1.312,1,1.778,1H4.5c0.467,0,0.778,0.311,0.778,0.778
				c0,0.934,0.156,1.866,0.467,2.8c0.078,0.234,0,0.544-0.156,0.778L3.801,7.067L3.801,7.067z"/>
		</g>
	</g>
</g>
</svg>
