<?xml version="1.0" encoding="utf-8"?>
<!-- Generator: Adobe Illustrator 16.0.4, SVG Export Plug-In . SVG Version: 6.00 Build 0)  -->
<!DOCTYPE svg PUBLIC "-//W3C//DTD SVG 1.1//EN" "http://www.w3.org/Graphics/SVG/1.1/DTD/svg11.dtd">
<svg version="1.1" id="Layer_1" xmlns="http://www.w3.org/2000/svg" xmlns:xlink="http://www.w3.org/1999/xlink" x="0px" y="0px"
	 width="15px" height="15px" viewBox="0 0 15 15" enable-background="new 0 0 15 15" xml:space="preserve">
<g id="Page-1">
	<g id="Icons-Device" transform="translate(-44.000000, 0.000000)">
		<g id="access-time" transform="translate(44.000000, 0.000000)">
			<path id="Shape" fill="#727272" fill-opacity="0.9" d="M7.5,0.107c-4.067,0-7.393,3.326-7.393,7.393
				c0,4.066,3.326,7.393,7.393,7.393c4.066,0,7.393-3.326,7.393-7.393C14.902,3.433,11.566,0.107,7.5,0.107L7.5,0.107z M7.5,13.039
				c-3.043,0-5.54-2.486-5.54-5.529c0-3.042,2.487-5.54,5.54-5.54c3.043,0,5.529,2.487,5.529,5.54
				C13.039,10.553,10.553,13.039,7.5,13.039z"/>
		</g>
	</g>
	<rect x="6.935" y="3.814" fill="#727272" fill-opacity="0.9" width="1.139" height="7.381"/>
	<rect x="3.814" y="6.935" fill="#727272" fill-opacity="0.9" width="7.381" height="1.139"/>
</g>
</svg>
