<?xml version="1.0" encoding="utf-8"?>
<!-- Generator: Adobe Illustrator 16.0.4, SVG Export Plug-In . SVG Version: 6.00 Build 0)  -->
<!DOCTYPE svg PUBLIC "-//W3C//DTD SVG 1.1//EN" "http://www.w3.org/Graphics/SVG/1.1/DTD/svg11.dtd">
<svg version="1.1" id="Layer_1" xmlns="http://www.w3.org/2000/svg" xmlns:xlink="http://www.w3.org/1999/xlink" x="0px" y="0px"
	 width="16px" height="16px" viewBox="0 0 16 16" enable-background="new 0 0 16 16" xml:space="preserve">
<path fill="#727272" d="M15,9.697h-0.834V9.661c0-1.191-0.97-2.161-2.161-2.161H8.5V6.302h0.834c0.553,0,1-0.447,1-1V2.635
	c0-0.553-0.447-1-1-1H6.667c-0.552,0-1,0.447-1,1v2.667c0,0.553,0.448,1,1,1H7.5V7.5H3.995c-1.191,0-2.161,0.969-2.161,2.16v0.037H1
	c-0.552,0-1,0.447-1,1v2.668c0,0.553,0.448,1,1,1h2.667c0.552,0,1-0.447,1-1v-2.668c0-0.553-0.448-1-1-1H2.833V9.66
	c0-0.64,0.521-1.16,1.161-1.16H7.5v1.197H6.667c-0.552,0-1,0.447-1,1v2.668c0,0.553,0.448,1,1,1h2.667c0.553,0,1-0.447,1-1v-2.668
	c0-0.553-0.447-1-1-1H8.5V8.5h3.505c0.641,0,1.161,0.521,1.161,1.161v0.036h-0.833c-0.552,0-1,0.447-1,1v2.668c0,0.553,0.448,1,1,1
	H15c0.553,0,1-0.447,1-1v-2.668C16,10.145,15.553,9.697,15,9.697z"/>
</svg>
